SRRun01_grf
version=1
nRows=18
nColumns=19
inDegrees=no
endheader
time	ground_force_r_vx	ground_force_r_vy	ground_force_r_vz	ground_force_r_px	ground_force_r_py	ground_force_r_pz	ground_force_r_mx	ground_force_r_my	ground_force_r_mz	ground_force_l_vx	ground_force_l_vy	ground_force_l_vz	ground_force_l_px	ground_force_l_py	ground_force_l_pz	ground_force_l_mx	ground_force_l_my	ground_force_l_mz
    147.49900000	     20.83167067	    234.47331528	    -89.54358574	      0.89160910	      0.00000000	     -0.70440561	      0.00000894	     18.50275298	      0.00001038	      0.00000000	      0.00000000	      0.00000000	      0.00000000	      0.00000000	      0.00000000	      0.00000000	      0.00000000	      0.00000000
    147.50000000	     20.71920298	    227.82312659	    -90.24246648	      0.89111657	      0.00000000	     -0.70452543	      0.00000876	     18.42012763	      0.00001013	      0.00000000	      0.00000000	      0.00000000	      0.00000000	      0.00000000	      0.00000000	      0.00000000	      0.00000000	      0.00000000
    147.50100000	     19.42406299	    221.21972089	    -90.47892500	      0.88988407	      0.00000000	     -0.70522694	      0.00000862	     16.88838238	      0.00000981	      0.00000000	      0.00000000	      0.00000000	      0.00000000	      0.00000000	      0.00000000	      0.00000000	      0.00000000	      0.00000000
    147.50200000	     16.96610998	    214.55331442	    -90.01631253	      0.88798452	      0.00000000	     -0.70644798	      0.00000851	     14.07261095	      0.00000940	      0.00000000	      0.00000000	      0.00000000	      0.00000000	      0.00000000	      0.00000000	      0.00000000	      0.00000000	      0.00000000
    147.50300000	     13.44877276	    207.72128606	    -88.67935853	      0.88554777	      0.00000000	     -0.70806405	      0.00000841	     10.23419868	      0.00000890	      0.00000000	      0.00000000	      0.00000000	      0.00000000	      0.00000000	      0.00000000	      0.00000000	      0.00000000	      0.00000000
    147.50400000	      9.05820351	    200.63494034	    -86.37290247	      0.88275468	      0.00000000	     -0.70988432	      0.00000830	      5.70588308	      0.00000834	      0.00000000	      0.00000000	      0.00000000	      0.00000000	      0.00000000	      0.00000000	      0.00000000	      0.00000000	      0.00000000
    147.50500000	      4.05519361	    193.22644371	    -83.09196849	      0.87982679	      0.00000000	     -0.71165726	      0.00000815	      0.86204470	      0.00000772	      0.00000000	      0.00000000	      0.00000000	      0.00000000	      0.00000000	      0.00000000	      0.00000000	      0.00000000	      0.00000000
    147.50600000	     -1.24028270	    185.45531794	    -78.92232284	      0.87701152	      0.00000000	     -0.71308625	      0.00000795	     -3.91305403	      0.00000708	      0.00000000	      0.00000000	      0.00000000	      0.00000000	      0.00000000	      0.00000000	      0.00000000	      0.00000000	      0.00000000
    147.50700000	     -6.47118398	    177.31358573	    -74.03184603	      0.87456323	      0.00000000	     -0.71385381	      0.00000769	     -8.25643616	      0.00000643	      0.00000000	      0.00000000	      0.00000000	      0.00000000	      0.00000000	      0.00000000	      0.00000000	      0.00000000	      0.00000000
    147.50800000	    -11.27056598	    168.82860397	    -68.65405043	      0.87272106	      0.00000000	     -0.71365225	      0.00000735	    -11.85450083	      0.00000580	      0.00000000	      0.00000000	      0.00000000	      0.00000000	      0.00000000	      0.00000000	      0.00000000	      0.00000000	      0.00000000
    147.50900000	    -15.29134448	    160.06286632	    -63.06580819	      0.87168580	      0.00000000	     -0.71221760	      0.00000694	    -14.46578100	      0.00000521	      0.00000000	      0.00000000	      0.00000000	      0.00000000	      0.00000000	      0.00000000	      0.00000000	      0.00000000	      0.00000000
    147.51000000	    -18.23560814	    151.11047391	    -57.56183338	      0.87159865	      0.00000000	     -0.70936243	      0.00000647	    -15.93654333	      0.00000469	      0.00000000	      0.00000000	      0.00000000	      0.00000000	      0.00000000	      0.00000000	      0.00000000	      0.00000000	      0.00000000
    147.51100000	    -19.88029850	    142.09038390	    -52.42865610	      0.87252480	      0.00000000	     -0.70500247	      0.00000594	    -16.20815603	      0.00000423	      0.00000000	      0.00000000	      0.00000000	      0.00000000	      0.00000000	      0.00000000	      0.00000000	      0.00000000	      0.00000000
    147.51200000	    -20.09647730	    133.13694757	    -47.92067957	      0.87444353	      0.00000000	     -0.69917114	      0.00000538	    -15.31610077	      0.00000386	      0.00000000	      0.00000000	      0.00000000	      0.00000000	      0.00000000	      0.00000000	      0.00000000	      0.00000000	      0.00000000
    147.51300000	    -18.86017539	    124.38871110	    -44.24043483	      0.87724550	      0.00000000	     -0.69201775	      0.00000480	    -13.38137171	      0.00000356	      0.00000000	      0.00000000	      0.00000000	      0.00000000	      0.00000000	      0.00000000	      0.00000000	      0.00000000	      0.00000000
    147.51400000	    -16.25370952	    115.97687843	    -41.52446994	      0.88073718	      0.00000000	     -0.68378848	      0.00000423	    -10.59555707	      0.00000335	      0.00000000	      0.00000000	      0.00000000	      0.00000000	      0.00000000	      0.00000000	      0.00000000	      0.00000000	      0.00000000
    147.51500000	    -12.45722460	    108.01503022	    -39.83563883	      0.88465285	      0.00000000	     -0.67479336	      0.00000368	     -7.20112088	      0.00000319	      0.00000000	      0.00000000	      0.00000000	      0.00000000	      0.00000000	      0.00000000	      0.00000000	      0.00000000	      0.00000000
    147.51600000	     -7.73111259	    100.59153863	    -39.16202540	      0.88867477	      0.00000000	     -0.66536560	      0.00000319	     -3.46848974	      0.00000309	      0.00000000	      0.00000000	      0.00000000	      0.00000000	      0.00000000	      0.00000000	      0.00000000	      0.00000000	      0.00000000
